<?xml version="1.0" encoding="UTF-8" standalone="no"?>
<svg
   version="1.1"
   id="Layer_1"
   x="0px"
   y="0px"
   width="100%"
   viewBox="0 0 1024 1024"
   enable-background="new 0 0 1024 1024"
   xml:space="preserve"
   sodipodi:docname="kernlogo.svg"
   inkscape:version="1.4.3 (0d15f75, 2025-12-25)"
   xmlns:inkscape="http://www.inkscape.org/namespaces/inkscape"
   xmlns:sodipodi="http://sodipodi.sourceforge.net/DTD/sodipodi-0.dtd"
   xmlns="http://www.w3.org/2000/svg"
   xmlns:svg="http://www.w3.org/2000/svg"><defs
   id="defs12" /><sodipodi:namedview
   id="namedview12"
   pagecolor="#ffffff"
   bordercolor="#000000"
   borderopacity="0.25"
   inkscape:showpageshadow="2"
   inkscape:pageopacity="0.0"
   inkscape:pagecheckerboard="0"
   inkscape:deskcolor="#d1d1d1"
   inkscape:zoom="1.6807597"
   inkscape:cx="498.58407"
   inkscape:cy="507.21112"
   inkscape:window-width="2560"
   inkscape:window-height="1494"
   inkscape:window-x="-11"
   inkscape:window-y="-11"
   inkscape:window-maximized="1"
   inkscape:current-layer="Layer_1" />
<path
   fill="#000000"
   opacity="1.000000"
   stroke="none"
   d=" M505.331787,218.246857   C511.890259,211.970551 513.990601,211.920044 520.113281,217.945358   C530.080872,227.754364 540.013489,237.599365 549.905884,247.484146   C553.763672,251.339005 553.866699,254.449753 550.098267,258.277252   C539.466919,269.075348 528.719177,279.758820 518.043213,290.513153   C514.863342,293.716370 511.630768,293.836914 508.451935,290.690155   C497.330963,279.681244 486.189850,268.690674 475.222015,257.530334   C471.986786,254.238373 472.518646,251.063873 476.448486,247.108719   C485.956421,237.539490 495.529419,228.034927 505.331787,218.246857  z"
   id="path1" />
<path
   fill="#000000"
   opacity="1.000000"
   stroke="none"
   d=" M541.443604,578.558350   C544.042236,581.170227 546.357483,583.566406 548.749695,585.883179   C551.817688,588.854431 552.125000,591.836243 548.998352,594.953735   C538.385559,605.535706 527.800354,616.145508 517.150208,626.689758   C514.430603,629.382324 511.399750,629.264771 508.740448,626.644104   C498.065887,616.124817 487.452026,605.543518 476.867065,594.933960   C473.982788,592.042969 474.198364,589.047363 477.058716,586.186462   C487.537781,575.705566 498.026459,565.234131 508.480988,554.728699   C511.756714,551.437073 514.695862,551.712036 517.893860,554.977234   C525.584045,562.829041 533.418335,570.539673 541.443604,578.558350  z"
   id="path2" />
<path
   fill="#000000"
   opacity="1.000000"
   stroke="none"
   d=" M442.847351,702.624207   C454.380524,697.804626 465.829376,697.200195 477.354065,700.782104   C491.682190,705.235291 500.682312,721.256531 497.449097,735.661499   C496.731598,738.858032 494.552551,738.369934 492.491852,738.375122   C477.676941,738.412659 462.861847,738.371277 448.046997,738.420044   C445.949127,738.426941 443.708527,737.886780 441.812988,739.316223   C442.525421,746.576843 447.241943,751.420227 455.709259,753.480652   C467.024170,756.233948 477.819672,754.244812 488.318939,749.747009   C489.816498,749.105469 491.125092,747.908936 492.915161,748.108582   C496.522766,755.706299 494.689178,760.899292 487.323151,763.647705   C475.442871,768.080566 463.221100,768.662109 450.984955,765.806396   C433.813873,761.798889 424.033386,746.924194 425.983154,729.022522   C427.238251,717.498962 431.984009,708.374573 442.847351,702.624207  M459.814911,711.259094   C448.876923,712.338379 442.805542,717.204102 442.322540,725.414917   C455.591187,725.414917 468.844330,725.414917 482.177307,725.414917   C481.247742,719.166382 478.999969,715.867065 474.301331,713.548279   C470.011261,711.431213 465.416779,710.967041 459.814911,711.259094  z"
   id="path3" />
<path
   fill="#000000"
   opacity="1.000000"
   stroke="none"
   d=" M331.331940,756.943359   C331.332031,757.601135 331.332733,757.767700 331.331940,757.934204   C331.296875,765.536133 326.574554,768.573547 319.153198,765.855225   C316.362000,764.832825 316.804962,762.512695 316.798798,760.426575   C316.757996,746.605408 316.773346,732.783997 316.774567,718.962708   C316.775726,705.640991 316.901001,692.317688 316.715210,678.998596   C316.657562,674.864075 318.088409,673.121765 322.206207,673.603821   C323.356354,673.738403 324.551666,673.756287 325.697845,673.607971   C330.105438,673.037537 331.481018,674.948914 331.416809,679.289307   C331.207520,693.440552 331.343781,707.596863 331.347015,721.751221   C331.347382,723.383911 331.347076,725.016663 331.347076,727.292664   C335.129150,725.944702 337.292603,723.350098 339.802948,721.403015   C346.773773,715.996338 353.733124,710.551636 360.376404,704.754517   C364.403625,701.240356 368.637207,699.443298 373.972534,700.006958   C378.125183,700.445679 382.445343,699.304260 387.564270,701.184082   C374.719330,711.357117 362.650726,720.915344 349.845825,731.056763   C362.438782,743.187439 376.226929,753.147949 388.374542,765.303772   C379.363129,765.023010 370.356720,768.986938 362.180908,761.070618   C352.899841,752.084106 342.452515,744.302063 331.331848,735.010132   C331.331848,743.013367 331.331848,749.732727 331.331940,756.943359  z"
   id="path4" />
<path
   fill="#000000"
   opacity="1.000000"
   stroke="none"
   d=" M637.698364,743.999939   C637.695435,731.501221 637.689819,719.502502 637.692383,707.503723   C637.693970,699.954834 637.829224,699.989014 645.598083,699.980652   C650.109924,699.975830 653.242126,700.913452 652.138550,707.558594   C658.144043,703.079773 663.734009,700.115479 670.262146,699.241089   C677.110901,698.323792 683.878357,698.260803 690.559265,700.100952   C702.337097,703.345093 708.893555,711.327698 709.217285,723.664307   C709.549377,736.320801 709.241577,748.993042 709.355103,761.657166   C709.384094,764.897644 708.059937,765.990295 704.928101,766.153259   C694.806763,766.679810 694.818909,766.771118 694.816956,756.841248   C694.815125,747.175659 694.893799,737.508667 694.756531,727.844910   C694.625488,718.614502 690.502930,713.885132 681.412170,711.904663   C675.865479,710.696350 670.451843,711.343811 665.154236,713.000977   C656.523132,715.700745 652.364258,721.358521 652.283875,730.434204   C652.196777,740.265747 652.035095,750.105347 652.340515,759.927979   C652.492920,764.831726 650.626526,766.644653 645.955200,766.152039   C644.802307,766.030518 643.621216,766.097107 642.458313,766.165894   C639.130920,766.362427 637.573059,765.005127 637.670471,761.497070   C637.827637,755.835449 637.704041,750.166016 637.698364,743.999939  z"
   id="path5" />
<path
   fill="#000000"
   opacity="1.000000"
   stroke="none"
   d=" M601.885498,510.885376   C585.265930,527.509521 568.898071,543.885437 552.524536,560.255676   C548.179504,564.599854 546.611328,564.651489 542.653564,560.634583   C538.633545,556.554443 538.695251,555.326172 543.198547,550.797241   C575.374451,518.438110 607.552979,486.081635 639.730286,453.723907   C644.585999,448.840881 649.217285,449.620941 652.152344,455.857941   C653.731323,459.213470 651.321411,461.187653 649.362427,463.165039   C635.763733,476.891663 622.118958,490.572601 608.488037,504.267273   C606.372925,506.392303 604.252930,508.512512 601.885498,510.885376  z"
   id="path6"
   style="fill:#808080" />
<path
   fill="#000000"
   opacity="1.000000"
   stroke="none"
   d=" M486.099915,287.138733   C486.151764,289.989410 484.307709,291.326660 482.802368,292.837646   C450.606750,325.155090 418.401062,357.462524 386.192993,389.767548   C381.541595,394.432953 376.560364,393.503784 373.695099,387.488220   C372.512817,385.006104 373.891479,383.406830 375.473572,381.802094   C389.145477,367.934265 402.757263,354.006775 416.483093,340.192535   C434.786438,321.771301 453.173340,303.433105 471.529694,285.064575   C478.688934,277.900574 480.547607,278.124176 486.099915,287.138733  z"
   id="path7"
   style="fill:#808080" />
<path
   fill="#000000"
   opacity="1.000000"
   stroke="none"
   d=" M455.993622,524.007385   C465.077240,533.098267 473.916321,541.933655 482.735626,550.788696   C487.349548,555.421387 485.913239,561.389526 479.730988,563.396118   C476.915131,564.310059 475.413574,562.304260 473.788483,560.673645   C454.733521,541.553284 435.692047,522.419495 416.647339,503.288879   C403.245056,489.826141 389.831909,476.374237 376.447784,462.893494   C371.988281,458.401825 373.639374,452.308228 379.801941,450.330994   C382.654510,449.415771 384.074219,451.577240 385.672455,453.185333   C409.040802,476.698120 432.388397,500.231537 455.993622,524.007385  z"
   id="path8" />
<path
   fill="#000000"
   opacity="1.000000"
   stroke="none"
   d=" M636.887695,387.107758   C606.359619,356.380615 576.082092,325.908020 545.803955,295.435974   C544.982361,294.609131 544.150085,293.792816 543.330383,292.964081   C538.734314,288.317413 538.611511,286.959320 542.432007,283.108215   C546.701599,278.804382 548.120972,278.764282 552.678955,283.338531   C585.110657,315.885895 617.519714,348.455872 649.912537,381.041962   C653.898315,385.051483 653.832153,386.542328 649.909607,390.572266   C646.169189,394.415100 644.482422,394.425507 640.299133,390.557892   C639.200073,389.541809 638.189453,388.430145 636.887695,387.107758  z"
   id="path9" />
<path
   fill="#000000"
   opacity="1.000000"
   stroke="none"
   d=" M658.042114,444.958069   C652.153015,439.054962 646.472412,433.442291 640.894592,427.729248   C636.813965,423.549652 636.790466,420.297394 640.897949,416.102234   C651.369446,405.407104 661.901123,394.770508 672.455261,384.156769   C676.737793,379.850067 680.242981,379.759125 684.502686,383.978027   C695.138245,394.511810 705.717529,405.103241 716.243286,415.746796   C720.414612,419.964844 720.523804,423.269989 716.456482,427.403534   C705.725769,438.309174 694.901672,449.124084 684.024353,459.883728   C680.223694,463.643311 677.055054,463.646576 673.184082,459.956573   C668.128113,455.136993 663.249573,450.131165 658.042114,444.958069  M685.887878,445.392700   C692.692871,438.565796 699.428894,431.667877 706.341431,424.951630   C708.661682,422.697235 708.716492,421.046204 706.397644,418.790039   C698.297852,410.909363 690.256409,402.965912 682.332153,394.909271   C679.419861,391.948242 677.221558,392.279236 674.479370,395.163025   C669.098511,400.821716 663.398743,406.175781 657.952271,411.774017   C654.744690,415.070923 651.091064,417.982300 647.832703,422.852509   C655.812012,430.552734 663.786133,438.265717 671.780640,445.957520   C678.804321,452.715332 677.299316,454.195984 685.887878,445.392700  z"
   id="path10" />
<path
   fill="#000000"
   opacity="1.000000"
   stroke="none"
   d=" M349.328857,381.367188   C354.105560,384.291199 357.272461,388.443054 360.937958,392.041565   C369.014862,399.970917 376.971649,408.024414 384.888367,416.114471   C388.817841,420.129974 389.096497,423.346191 385.538757,426.971069   C374.578552,438.137939 363.478729,449.168121 352.394714,460.212860   C349.104645,463.491241 345.684509,463.540283 342.348877,460.202545   C331.287994,449.134583 320.201660,438.091736 309.198059,426.967072   C305.989685,423.723450 305.863464,419.931244 309.012695,416.725037   C320.092651,405.444489 331.336121,394.323914 342.579468,383.205231   C344.283783,381.519775 346.446564,380.596527 349.328857,381.367188  M329.537262,434.962830   C334.137238,439.545563 338.860321,444.013153 343.292847,448.752502   C346.132050,451.788269 348.282318,452.282043 351.423492,448.950806   C358.388275,441.564697 365.753693,434.557892 372.844269,427.287659   C374.523468,425.565918 376.750885,424.158936 377.118347,422.597321   C366.674408,412.222656 356.711273,402.325592 345.946686,391.632416   C337.205322,400.625092 328.079468,410.057648 318.891235,419.429138   C316.989655,421.368622 317.569153,422.867615 319.215851,424.507477   C322.518738,427.796722 325.765747,431.142090 329.537262,434.962830  z"
   id="path11" />
<path
   fill="#000000"
   opacity="1.000000"
   stroke="none"
   d=" M562.975525,756.892212   C562.937988,758.706543 562.840576,760.040344 562.886353,761.369141   C562.999878,764.663879 561.623840,766.072083 558.162903,766.190125   C548.385925,766.523560 548.164856,766.649353 548.150085,756.664673   C548.124207,739.189697 548.464111,721.714417 548.503662,704.238953   C548.510620,701.157715 549.762390,699.988098 552.626282,700.062195   C552.958740,700.070801 553.292114,700.041504 553.624878,700.046082   C558.217224,700.109680 563.649170,698.882446 562.694458,707.738647   C568.848206,702.434143 574.765930,699.689148 581.587463,699.230347   C582.416016,699.174561 583.239868,699.002747 584.067566,698.989929   C592.012512,698.866577 595.337402,703.568909 592.817810,711.140381   C592.008606,713.571960 590.219055,713.338684 588.398193,713.240662   C583.729187,712.989502 579.092102,712.876892 574.567017,714.434814   C566.654419,717.158813 563.147217,721.588440 562.986694,729.939575   C562.817078,738.759644 562.969238,747.585815 562.975525,756.892212  z"
   id="path12" />
</svg>
