<?xml version="1.0" encoding="UTF-8" standalone="no"?>
<svg
   version="1.1"
   id="Layer_1"
   x="0px"
   y="0px"
   width="100%"
   viewBox="256 164 512 512"
   enable-background="new 256 164 512 512"
   xml:space="preserve"
   sodipodi:docname="kern-mark-light.svg"
   inkscape:version="1.4.3 (0d15f75, 2025-12-25)"
   xmlns:inkscape="http://www.inkscape.org/namespaces/inkscape"
   xmlns:sodipodi="http://sodipodi.sourceforge.net/DTD/sodipodi-0.dtd"
   xmlns="http://www.w3.org/2000/svg"
   xmlns:svg="http://www.w3.org/2000/svg"><defs
   id="defs12" /><sodipodi:namedview
   id="namedview12"
   pagecolor="#ffffff"
   bordercolor="#000000"
   borderopacity="0.25"
   inkscape:showpageshadow="2"
   inkscape:pageopacity="0.0"
   inkscape:pagecheckerboard="0"
   inkscape:deskcolor="#d1d1d1"
   inkscape:zoom="1.6807597"
   inkscape:cx="498.88155"
   inkscape:cy="412.61104"
   inkscape:window-width="2560"
   inkscape:window-height="1494"
   inkscape:window-x="-11"
   inkscape:window-y="-11"
   inkscape:window-maximized="1"
   inkscape:current-layer="Layer_1" />
<path
   fill="#000000"
   opacity="1.000000"
   stroke="none"
   d=" M505.331787,218.246857   C511.890259,211.970551 513.990601,211.920044 520.113281,217.945358   C530.080872,227.754364 540.013489,237.599365 549.905884,247.484146   C553.763672,251.339005 553.866699,254.449753 550.098267,258.277252   C539.466919,269.075348 528.719177,279.758820 518.043213,290.513153   C514.863342,293.716370 511.630768,293.836914 508.451935,290.690155   C497.330963,279.681244 486.189850,268.690674 475.222015,257.530334   C471.986786,254.238373 472.518646,251.063873 476.448486,247.108719   C485.956421,237.539490 495.529419,228.034927 505.331787,218.246857  z"
   id="path1" />
<path
   fill="#000000"
   opacity="1.000000"
   stroke="none"
   d=" M541.443604,578.558350   C544.042236,581.170227 546.357483,583.566406 548.749695,585.883179   C551.817688,588.854431 552.125000,591.836243 548.998352,594.953735   C538.385559,605.535706 527.800354,616.145508 517.150208,626.689758   C514.430603,629.382324 511.399750,629.264771 508.740448,626.644104   C498.065887,616.124817 487.452026,605.543518 476.867065,594.933960   C473.982788,592.042969 474.198364,589.047363 477.058716,586.186462   C487.537781,575.705566 498.026459,565.234131 508.480988,554.728699   C511.756714,551.437073 514.695862,551.712036 517.893860,554.977234   C525.584045,562.829041 533.418335,570.539673 541.443604,578.558350  z"
   id="path2" />



<path
   fill="#000000"
   opacity="1.000000"
   stroke="none"
   d=" M601.885498,510.885376   C585.265930,527.509521 568.898071,543.885437 552.524536,560.255676   C548.179504,564.599854 546.611328,564.651489 542.653564,560.634583   C538.633545,556.554443 538.695251,555.326172 543.198547,550.797241   C575.374451,518.438110 607.552979,486.081635 639.730286,453.723907   C644.585999,448.840881 649.217285,449.620941 652.152344,455.857941   C653.731323,459.213470 651.321411,461.187653 649.362427,463.165039   C635.763733,476.891663 622.118958,490.572601 608.488037,504.267273   C606.372925,506.392303 604.252930,508.512512 601.885498,510.885376  z"
   id="path6"
   style="fill:#808080" />
<path
   fill="#000000"
   opacity="1.000000"
   stroke="none"
   d=" M486.099915,287.138733   C486.151764,289.989410 484.307709,291.326660 482.802368,292.837646   C450.606750,325.155090 418.401062,357.462524 386.192993,389.767548   C381.541595,394.432953 376.560364,393.503784 373.695099,387.488220   C372.512817,385.006104 373.891479,383.406830 375.473572,381.802094   C389.145477,367.934265 402.757263,354.006775 416.483093,340.192535   C434.786438,321.771301 453.173340,303.433105 471.529694,285.064575   C478.688934,277.900574 480.547607,278.124176 486.099915,287.138733  z"
   id="path7"
   style="fill:#808080" />
<path
   fill="#000000"
   opacity="1.000000"
   stroke="none"
   d=" M455.993622,524.007385   C465.077240,533.098267 473.916321,541.933655 482.735626,550.788696   C487.349548,555.421387 485.913239,561.389526 479.730988,563.396118   C476.915131,564.310059 475.413574,562.304260 473.788483,560.673645   C454.733521,541.553284 435.692047,522.419495 416.647339,503.288879   C403.245056,489.826141 389.831909,476.374237 376.447784,462.893494   C371.988281,458.401825 373.639374,452.308228 379.801941,450.330994   C382.654510,449.415771 384.074219,451.577240 385.672455,453.185333   C409.040802,476.698120 432.388397,500.231537 455.993622,524.007385  z"
   id="path8" />
<path
   fill="#000000"
   opacity="1.000000"
   stroke="none"
   d=" M636.887695,387.107758   C606.359619,356.380615 576.082092,325.908020 545.803955,295.435974   C544.982361,294.609131 544.150085,293.792816 543.330383,292.964081   C538.734314,288.317413 538.611511,286.959320 542.432007,283.108215   C546.701599,278.804382 548.120972,278.764282 552.678955,283.338531   C585.110657,315.885895 617.519714,348.455872 649.912537,381.041962   C653.898315,385.051483 653.832153,386.542328 649.909607,390.572266   C646.169189,394.415100 644.482422,394.425507 640.299133,390.557892   C639.200073,389.541809 638.189453,388.430145 636.887695,387.107758  z"
   id="path9" />
<path
   fill="#000000"
   opacity="1.000000"
   stroke="none"
   d=" M658.042114,444.958069   C652.153015,439.054962 646.472412,433.442291 640.894592,427.729248   C636.813965,423.549652 636.790466,420.297394 640.897949,416.102234   C651.369446,405.407104 661.901123,394.770508 672.455261,384.156769   C676.737793,379.850067 680.242981,379.759125 684.502686,383.978027   C695.138245,394.511810 705.717529,405.103241 716.243286,415.746796   C720.414612,419.964844 720.523804,423.269989 716.456482,427.403534   C705.725769,438.309174 694.901672,449.124084 684.024353,459.883728   C680.223694,463.643311 677.055054,463.646576 673.184082,459.956573   C668.128113,455.136993 663.249573,450.131165 658.042114,444.958069  M685.887878,445.392700   C692.692871,438.565796 699.428894,431.667877 706.341431,424.951630   C708.661682,422.697235 708.716492,421.046204 706.397644,418.790039   C698.297852,410.909363 690.256409,402.965912 682.332153,394.909271   C679.419861,391.948242 677.221558,392.279236 674.479370,395.163025   C669.098511,400.821716 663.398743,406.175781 657.952271,411.774017   C654.744690,415.070923 651.091064,417.982300 647.832703,422.852509   C655.812012,430.552734 663.786133,438.265717 671.780640,445.957520   C678.804321,452.715332 677.299316,454.195984 685.887878,445.392700  z"
   id="path10" />
<path
   fill="#000000"
   opacity="1.000000"
   stroke="none"
   d=" M349.328857,381.367188   C354.105560,384.291199 357.272461,388.443054 360.937958,392.041565   C369.014862,399.970917 376.971649,408.024414 384.888367,416.114471   C388.817841,420.129974 389.096497,423.346191 385.538757,426.971069   C374.578552,438.137939 363.478729,449.168121 352.394714,460.212860   C349.104645,463.491241 345.684509,463.540283 342.348877,460.202545   C331.287994,449.134583 320.201660,438.091736 309.198059,426.967072   C305.989685,423.723450 305.863464,419.931244 309.012695,416.725037   C320.092651,405.444489 331.336121,394.323914 342.579468,383.205231   C344.283783,381.519775 346.446564,380.596527 349.328857,381.367188  M329.537262,434.962830   C334.137238,439.545563 338.860321,444.013153 343.292847,448.752502   C346.132050,451.788269 348.282318,452.282043 351.423492,448.950806   C358.388275,441.564697 365.753693,434.557892 372.844269,427.287659   C374.523468,425.565918 376.750885,424.158936 377.118347,422.597321   C366.674408,412.222656 356.711273,402.325592 345.946686,391.632416   C337.205322,400.625092 328.079468,410.057648 318.891235,419.429138   C316.989655,421.368622 317.569153,422.867615 319.215851,424.507477   C322.518738,427.796722 325.765747,431.142090 329.537262,434.962830  z"
   id="path11" />

</svg>
